# Blender v2.82 (sub 7) OBJ File: ''
# www.blender.org
mtllib Triangle.mtl
o path44
v -0.977036 0.942433 0.983827
v -0.977383 0.942433 0.983810
v -0.977749 0.942433 0.983763
v -0.978127 0.942433 0.983687
v -0.978512 0.942433 0.983584
v -0.978901 0.942433 0.983456
v -0.979286 0.942433 0.983306
v -0.979664 0.942433 0.983136
v -0.980029 0.942433 0.982947
v -0.980376 0.942433 0.982742
v -0.980700 0.942433 0.982524
v -0.980995 0.942433 0.982294
v -0.981258 0.942433 0.982054
v -0.981497 0.942433 0.972817
v -0.981728 0.942433 0.946390
v -0.981946 0.942433 0.903966
v -0.982151 0.942433 0.846741
v -0.982340 0.942433 0.775908
v -0.982510 0.942433 0.692662
v -0.982660 0.942433 0.598196
v -0.982788 0.942433 0.493706
v -0.982891 0.942433 0.380384
v -0.982967 0.942433 0.259426
v -0.983015 0.942433 0.132026
v -0.983031 0.942433 -0.000622
v -0.983017 0.942433 -0.190828
v -0.982973 0.942433 -0.355784
v -0.982891 0.942433 -0.497155
v -0.982766 0.942433 -0.616607
v -0.982592 0.942433 -0.715803
v -0.982363 0.942433 -0.796408
v -0.982072 0.942433 -0.860089
v -0.981715 0.942433 -0.908509
v -0.981285 0.942433 -0.943333
v -0.980775 0.942433 -0.966226
v -0.980181 0.942433 -0.978854
v -0.979495 0.942433 -0.982881
v -0.939693 0.942433 -0.964109
v -0.832069 0.942433 -0.911269
v -0.670210 0.942433 -0.831148
v -0.467702 0.942433 -0.730530
v -0.238134 0.942433 -0.616198
v 0.004909 0.942433 -0.494939
v 0.247837 0.942433 -0.373535
v 0.477066 0.942433 -0.258773
v 0.679006 0.942433 -0.157436
v 0.840071 0.942433 -0.076309
v 0.946674 0.942433 -0.022177
v 0.985228 0.942433 -0.001824
v 0.978375 0.942433 0.002243
v 0.957831 0.942433 0.013114
v 0.923624 0.942433 0.030773
v 0.875780 0.942433 0.055208
v 0.814327 0.942433 0.086405
v 0.739291 0.942433 0.124351
v 0.650698 0.942433 0.169032
v 0.548575 0.942433 0.220435
v 0.432949 0.942433 0.278546
v 0.303847 0.942433 0.343352
v 0.161295 0.942433 0.414840
v 0.005320 0.942433 0.492995
v -0.127200 0.942433 0.559362
v -0.254489 0.942433 0.623088
v -0.375353 0.942433 0.683576
v -0.488599 0.942433 0.740229
v -0.593032 0.942433 0.792451
v -0.687459 0.942433 0.839645
v -0.770686 0.942433 0.881215
v -0.841519 0.942433 0.916565
v -0.898765 0.942433 0.945097
v -0.941229 0.942433 0.966216
v -0.967717 0.942433 0.979325
v -0.977036 -0.942433 0.983827
v -0.977383 -0.942433 0.983810
v -0.977749 -0.942433 0.983763
v -0.978127 -0.942433 0.983687
v -0.978512 -0.942433 0.983584
v -0.978901 -0.942433 0.983456
v -0.979286 -0.942433 0.983306
v -0.979664 -0.942433 0.983136
v -0.980029 -0.942433 0.982947
v -0.980376 -0.942433 0.982742
v -0.980700 -0.942433 0.982524
v -0.980995 -0.942433 0.982294
v -0.981258 -0.942433 0.982054
v -0.981497 -0.942433 0.972817
v -0.981728 -0.942433 0.946390
v -0.981946 -0.942433 0.903966
v -0.982151 -0.942433 0.846741
v -0.982340 -0.942433 0.775908
v -0.982510 -0.942433 0.692662
v -0.982660 -0.942433 0.598196
v -0.982788 -0.942433 0.493706
v -0.982891 -0.942433 0.380384
v -0.982967 -0.942433 0.259426
v -0.983015 -0.942433 0.132026
v -0.983031 -0.942433 -0.000622
v -0.983017 -0.942433 -0.190828
v -0.982973 -0.942433 -0.355784
v -0.982891 -0.942433 -0.497155
v -0.982766 -0.942433 -0.616607
v -0.982592 -0.942433 -0.715803
v -0.982363 -0.942433 -0.796408
v -0.982072 -0.942433 -0.860089
v -0.981715 -0.942433 -0.908509
v -0.981285 -0.942433 -0.943333
v -0.980775 -0.942433 -0.966226
v -0.980181 -0.942433 -0.978854
v -0.979495 -0.942433 -0.982881
v -0.939693 -0.942433 -0.964109
v -0.832069 -0.942433 -0.911269
v -0.670210 -0.942433 -0.831148
v -0.467702 -0.942433 -0.730530
v -0.238134 -0.942433 -0.616198
v 0.004909 -0.942433 -0.494939
v 0.247837 -0.942433 -0.373535
v 0.477066 -0.942433 -0.258773
v 0.679006 -0.942433 -0.157436
v 0.840071 -0.942433 -0.076309
v 0.946674 -0.942433 -0.022177
v 0.985228 -0.942433 -0.001824
v 0.978375 -0.942433 0.002243
v 0.957831 -0.942433 0.013114
v 0.923624 -0.942433 0.030773
v 0.875780 -0.942433 0.055208
v 0.814327 -0.942433 0.086405
v 0.739291 -0.942433 0.124351
v 0.650698 -0.942433 0.169032
v 0.548575 -0.942433 0.220435
v 0.432949 -0.942433 0.278546
v 0.303847 -0.942433 0.343352
v 0.161295 -0.942433 0.414840
v 0.005320 -0.942433 0.492995
v -0.127200 -0.942433 0.559362
v -0.254489 -0.942433 0.623088
v -0.375353 -0.942433 0.683576
v -0.488599 -0.942433 0.740229
v -0.593032 -0.942433 0.792451
v -0.687459 -0.942433 0.839645
v -0.770686 -0.942433 0.881215
v -0.841519 -0.942433 0.916565
v -0.898765 -0.942433 0.945097
v -0.941229 -0.942433 0.966216
v -0.967717 -0.942433 0.979325
v -0.977036 -0.942433 0.983827
v -0.977036 0.942433 0.983827
v -0.977383 -0.942433 0.983810
v -0.977383 0.942433 0.983810
v -0.977749 -0.942433 0.983763
v -0.977749 0.942433 0.983763
v -0.978127 -0.942433 0.983687
v -0.978127 0.942433 0.983687
v -0.978512 -0.942433 0.983584
v -0.978512 0.942433 0.983584
v -0.978901 -0.942433 0.983456
v -0.978901 0.942433 0.983456
v -0.979286 -0.942433 0.983306
v -0.979286 0.942433 0.983306
v -0.979664 -0.942433 0.983136
v -0.979664 0.942433 0.983136
v -0.980029 -0.942433 0.982947
v -0.980029 0.942433 0.982947
v -0.980376 -0.942433 0.982742
v -0.980376 0.942433 0.982742
v -0.980700 -0.942433 0.982524
v -0.980700 0.942433 0.982524
v -0.980995 -0.942433 0.982294
v -0.980995 0.942433 0.982294
v -0.981258 -0.942433 0.982054
v -0.981258 0.942433 0.982054
v -0.981497 -0.942433 0.972817
v -0.981497 0.942433 0.972817
v -0.981728 -0.942433 0.946390
v -0.981728 0.942433 0.946390
v -0.981946 -0.942433 0.903966
v -0.981946 0.942433 0.903966
v -0.982151 -0.942433 0.846741
v -0.982151 0.942433 0.846741
v -0.982340 -0.942433 0.775908
v -0.982340 0.942433 0.775908
v -0.982510 -0.942433 0.692662
v -0.982510 0.942433 0.692662
v -0.982660 -0.942433 0.598196
v -0.982660 0.942433 0.598196
v -0.982788 -0.942433 0.493706
v -0.982788 0.942433 0.493706
v -0.982891 -0.942433 0.380384
v -0.982891 0.942433 0.380384
v -0.982967 -0.942433 0.259426
v -0.982967 0.942433 0.259426
v -0.983015 -0.942433 0.132026
v -0.983015 0.942433 0.132026
v -0.983031 -0.942433 -0.000622
v -0.983031 0.942433 -0.000622
v -0.983017 -0.942433 -0.190828
v -0.983017 0.942433 -0.190828
v -0.982973 -0.942433 -0.355784
v -0.982973 0.942433 -0.355784
v -0.982891 -0.942433 -0.497155
v -0.982891 0.942433 -0.497155
v -0.982766 -0.942433 -0.616607
v -0.982766 0.942433 -0.616607
v -0.982592 -0.942433 -0.715803
v -0.982592 0.942433 -0.715803
v -0.982363 -0.942433 -0.796408
v -0.982363 0.942433 -0.796408
v -0.982072 -0.942433 -0.860089
v -0.982072 0.942433 -0.860089
v -0.981715 -0.942433 -0.908509
v -0.981715 0.942433 -0.908509
v -0.981285 -0.942433 -0.943333
v -0.981285 0.942433 -0.943333
v -0.980775 -0.942433 -0.966226
v -0.980775 0.942433 -0.966226
v -0.980181 -0.942433 -0.978854
v -0.980181 0.942433 -0.978854
v -0.979495 -0.942433 -0.982881
v -0.979495 0.942433 -0.982881
v -0.939693 -0.942433 -0.964109
v -0.939693 0.942433 -0.964109
v -0.832069 -0.942433 -0.911269
v -0.832069 0.942433 -0.911269
v -0.670210 -0.942433 -0.831148
v -0.670210 0.942433 -0.831148
v -0.467702 -0.942433 -0.730530
v -0.467702 0.942433 -0.730530
v -0.238134 -0.942433 -0.616198
v -0.238134 0.942433 -0.616198
v 0.004909 -0.942433 -0.494939
v 0.004909 0.942433 -0.494939
v 0.247837 -0.942433 -0.373535
v 0.247837 0.942433 -0.373535
v 0.477066 -0.942433 -0.258773
v 0.477066 0.942433 -0.258773
v 0.679006 -0.942433 -0.157436
v 0.679006 0.942433 -0.157436
v 0.840071 -0.942433 -0.076309
v 0.840071 0.942433 -0.076309
v 0.946674 -0.942433 -0.022177
v 0.946674 0.942433 -0.022177
v 0.985228 -0.942433 -0.001824
v 0.985228 0.942433 -0.001824
v 0.978375 -0.942433 0.002243
v 0.978375 0.942433 0.002243
v 0.957831 -0.942433 0.013114
v 0.957831 0.942433 0.013114
v 0.923624 -0.942433 0.030773
v 0.923624 0.942433 0.030773
v 0.875780 -0.942433 0.055208
v 0.875780 0.942433 0.055208
v 0.814327 -0.942433 0.086405
v 0.814327 0.942433 0.086405
v 0.739291 -0.942433 0.124351
v 0.739291 0.942433 0.124351
v 0.650698 -0.942433 0.169032
v 0.650698 0.942433 0.169032
v 0.548575 -0.942433 0.220435
v 0.548575 0.942433 0.220435
v 0.432949 -0.942433 0.278546
v 0.432949 0.942433 0.278546
v 0.303847 -0.942433 0.343352
v 0.303847 0.942433 0.343352
v 0.161295 -0.942433 0.414840
v 0.161295 0.942433 0.414840
v 0.005320 -0.942433 0.492995
v 0.005320 0.942433 0.492995
v -0.127200 -0.942433 0.559362
v -0.127200 0.942433 0.559362
v -0.254489 -0.942433 0.623088
v -0.254489 0.942433 0.623088
v -0.375353 -0.942433 0.683576
v -0.375353 0.942433 0.683576
v -0.488599 -0.942433 0.740229
v -0.488599 0.942433 0.740229
v -0.593032 -0.942433 0.792451
v -0.593032 0.942433 0.792451
v -0.687459 -0.942433 0.839645
v -0.687459 0.942433 0.839645
v -0.770686 -0.942433 0.881215
v -0.770686 0.942433 0.881215
v -0.841519 -0.942433 0.916565
v -0.841519 0.942433 0.916565
v -0.898765 -0.942433 0.945097
v -0.898765 0.942433 0.945097
v -0.941229 -0.942433 0.966216
v -0.941229 0.942433 0.966216
v -0.967717 -0.942433 0.979325
v -0.967717 0.942433 0.979325
vt 0.492958 0.000000
vt 0.521127 0.000000
vt 0.507042 0.000000
vt 0.478873 0.000000
vt 0.464789 0.000000
vt 0.535211 0.000000
vt 0.450704 0.000000
vt 0.549296 0.000000
vt 0.436620 0.000000
vt 0.422535 0.000000
vt 0.563380 0.000000
vt 0.408451 0.000000
vt 0.577465 0.000000
vt 0.394366 0.000000
vt 0.380282 0.000000
vt 0.591549 0.000000
vt 0.366197 0.000000
vt 0.605634 0.000000
vt 0.619718 0.000000
vt 0.352113 0.000000
vt 0.633803 0.000000
vt 0.338028 0.000000
vt 0.647887 0.000000
vt 0.661972 0.000000
vt 0.676056 0.000000
vt 0.690141 0.000000
vt 0.323944 0.000000
vt 0.704225 0.000000
vt 0.718310 0.000000
vt 0.732394 0.000000
vt 0.746479 0.000000
vt 0.760563 0.000000
vt 0.774648 0.000000
vt 0.309859 0.000000
vt 0.788732 0.000000
vt 0.802817 0.000000
vt 0.295775 0.000000
vt 0.816901 0.000000
vt 0.830986 0.000000
vt 0.281690 0.000000
vt 0.845070 0.000000
vt 0.859155 0.000000
vt 0.267606 0.000000
vt 0.873239 0.000000
vt 0.253521 0.000000
vt 0.887324 0.000000
vt 0.901408 0.000000
vt 0.239437 0.000000
vt 0.915493 0.000000
vt 0.225352 0.000000
vt 0.929577 0.000000
vt 0.943662 0.000000
vt 0.211268 0.000000
vt 0.957747 0.000000
vt 0.197183 0.000000
vt 0.971831 0.000000
vt 0.985915 0.000000
vt 0.183099 0.000000
vt 1.000000 0.000000
vt 0.169014 0.000000
vt 0.000000 0.000000
vt 0.154930 0.000000
vt 0.140845 0.000000
vt 0.126761 0.000000
vt 0.112676 0.000000
vt 0.098592 0.000000
vt 0.084507 0.000000
vt 0.070423 0.000000
vt 0.056338 0.000000
vt 0.042254 0.000000
vt 0.028169 0.000000
vt 0.014085 0.000000
vt 0.521127 0.000000
vt 0.492958 0.000000
vt 0.507042 0.000000
vt 0.478873 0.000000
vt 0.464789 0.000000
vt 0.535211 0.000000
vt 0.450704 0.000000
vt 0.549296 0.000000
vt 0.436620 0.000000
vt 0.422535 0.000000
vt 0.563380 0.000000
vt 0.408451 0.000000
vt 0.577465 0.000000
vt 0.394366 0.000000
vt 0.380282 0.000000
vt 0.591549 0.000000
vt 0.366197 0.000000
vt 0.605634 0.000000
vt 0.619718 0.000000
vt 0.352113 0.000000
vt 0.633803 0.000000
vt 0.338028 0.000000
vt 0.647887 0.000000
vt 0.661972 0.000000
vt 0.676056 0.000000
vt 0.690141 0.000000
vt 0.323944 0.000000
vt 0.704225 0.000000
vt 0.718310 0.000000
vt 0.732394 0.000000
vt 0.746479 0.000000
vt 0.760563 0.000000
vt 0.774648 0.000000
vt 0.309859 0.000000
vt 0.788732 0.000000
vt 0.802817 0.000000
vt 0.295775 0.000000
vt 0.816901 0.000000
vt 0.830986 0.000000
vt 0.281690 0.000000
vt 0.845070 0.000000
vt 0.859155 0.000000
vt 0.267606 0.000000
vt 0.873239 0.000000
vt 0.253521 0.000000
vt 0.887324 0.000000
vt 0.901408 0.000000
vt 0.239437 0.000000
vt 0.915493 0.000000
vt 0.225352 0.000000
vt 0.929577 0.000000
vt 0.943662 0.000000
vt 0.211268 0.000000
vt 0.957747 0.000000
vt 0.197183 0.000000
vt 0.971831 0.000000
vt 0.985915 0.000000
vt 0.183099 0.000000
vt 1.000000 0.000000
vt 0.169014 0.000000
vt 0.000000 0.000000
vt 0.154930 0.000000
vt 0.140845 0.000000
vt 0.126761 0.000000
vt 0.112676 0.000000
vt 0.098592 0.000000
vt 0.084507 0.000000
vt 0.070423 0.000000
vt 0.056338 0.000000
vt 0.042254 0.000000
vt 0.028169 0.000000
vt 0.014085 0.000000
vt 0.000000 1.000000
vt 0.013889 1.000000
vt 0.013889 0.000000
vt 0.000000 0.000000
vt 0.027778 1.000000
vt 0.027778 0.000000
vt 0.041667 1.000000
vt 0.041667 0.000000
vt 0.055556 1.000000
vt 0.055556 0.000000
vt 0.069444 1.000000
vt 0.069444 0.000000
vt 0.083333 1.000000
vt 0.083333 0.000000
vt 0.097222 1.000000
vt 0.097222 0.000000
vt 0.111111 1.000000
vt 0.111111 0.000000
vt 0.125000 1.000000
vt 0.125000 0.000000
vt 0.138889 1.000000
vt 0.138889 0.000000
vt 0.152778 1.000000
vt 0.152778 0.000000
vt 0.166667 1.000000
vt 0.166667 0.000000
vt 0.180556 1.000000
vt 0.180556 0.000000
vt 0.194444 1.000000
vt 0.194444 0.000000
vt 0.208333 1.000000
vt 0.208333 0.000000
vt 0.222222 1.000000
vt 0.222222 0.000000
vt 0.236111 1.000000
vt 0.236111 0.000000
vt 0.250000 1.000000
vt 0.250000 0.000000
vt 0.263889 1.000000
vt 0.263889 0.000000
vt 0.277778 1.000000
vt 0.277778 0.000000
vt 0.291667 1.000000
vt 0.291667 0.000000
vt 0.305556 1.000000
vt 0.305556 0.000000
vt 0.319444 1.000000
vt 0.319444 0.000000
vt 0.333333 1.000000
vt 0.333333 0.000000
vt 0.347222 1.000000
vt 0.347222 0.000000
vt 0.361111 1.000000
vt 0.361111 0.000000
vt 0.375000 1.000000
vt 0.375000 0.000000
vt 0.388889 1.000000
vt 0.388889 0.000000
vt 0.402778 1.000000
vt 0.402778 0.000000
vt 0.416667 1.000000
vt 0.416667 0.000000
vt 0.430556 1.000000
vt 0.430556 0.000000
vt 0.444444 1.000000
vt 0.444444 0.000000
vt 0.458333 1.000000
vt 0.458333 0.000000
vt 0.472222 1.000000
vt 0.472222 0.000000
vt 0.486111 1.000000
vt 0.486111 0.000000
vt 0.500000 1.000000
vt 0.500000 0.000000
vt 0.513889 1.000000
vt 0.513889 0.000000
vt 0.527778 1.000000
vt 0.527778 0.000000
vt 0.541667 1.000000
vt 0.541667 0.000000
vt 0.555556 1.000000
vt 0.555556 0.000000
vt 0.569444 1.000000
vt 0.569444 0.000000
vt 0.583333 1.000000
vt 0.583333 0.000000
vt 0.597222 1.000000
vt 0.597222 0.000000
vt 0.611111 1.000000
vt 0.611111 0.000000
vt 0.625000 1.000000
vt 0.625000 0.000000
vt 0.638889 1.000000
vt 0.638889 0.000000
vt 0.652778 1.000000
vt 0.652778 0.000000
vt 0.666667 1.000000
vt 0.666667 0.000000
vt 0.680556 1.000000
vt 0.680556 0.000000
vt 0.694444 1.000000
vt 0.694444 0.000000
vt 0.708333 1.000000
vt 0.708333 0.000000
vt 0.722222 1.000000
vt 0.722222 0.000000
vt 0.736111 1.000000
vt 0.736111 0.000000
vt 0.750000 1.000000
vt 0.750000 0.000000
vt 0.763889 1.000000
vt 0.763889 0.000000
vt 0.777778 1.000000
vt 0.777778 0.000000
vt 0.791667 1.000000
vt 0.791667 0.000000
vt 0.805556 1.000000
vt 0.805556 0.000000
vt 0.819444 1.000000
vt 0.819444 0.000000
vt 0.833333 1.000000
vt 0.833333 0.000000
vt 0.847222 1.000000
vt 0.847222 0.000000
vt 0.861111 1.000000
vt 0.861111 0.000000
vt 0.875000 1.000000
vt 0.875000 0.000000
vt 0.888889 1.000000
vt 0.888889 0.000000
vt 0.902778 1.000000
vt 0.902778 0.000000
vt 0.916667 1.000000
vt 0.916667 0.000000
vt 0.930556 1.000000
vt 0.930556 0.000000
vt 0.944444 1.000000
vt 0.944444 0.000000
vt 0.958333 1.000000
vt 0.958333 0.000000
vt 0.972222 1.000000
vt 0.972222 0.000000
vt 0.986111 1.000000
vt 0.986111 0.000000
vt 1.000000 1.000000
vt 1.000000 0.000000
vn 0.0000 1.0000 0.0000
vn 0.0000 1.0000 -0.0010
vn 0.0000 1.0000 0.0012
vn 0.0000 1.0000 -0.0034
vn 0.0000 1.0000 0.0025
vn 0.0000 -1.0000 -0.0000
vn 0.0000 -1.0000 0.0004
vn 0.0000 -1.0000 -0.0008
vn 0.0000 -1.0000 0.0008
vn 0.0000 -1.0000 -0.0004
vn 0.0000 -1.0000 -0.0002
vn 0.0000 -1.0000 0.0012
vn 0.0000 -1.0000 -0.0021
vn 0.0000 -1.0000 0.0019
vn 0.0000 -1.0000 -0.0010
vn 0.0000 -1.0000 -0.0055
vn 0.2003 0.0000 0.9797
vn -0.0876 0.0000 0.9961
vn -0.1633 0.0000 0.9865
vn -0.2281 0.0000 0.9736
vn -0.2854 0.0000 0.9584
vn -0.3377 0.0000 0.9412
vn -0.3872 0.0000 0.9220
vn -0.4353 0.0000 0.9002
vn -0.4837 0.0000 0.8752
vn -0.5337 0.0000 0.8456
vn -0.5871 0.0000 0.8095
vn -0.6451 0.0000 0.7641
vn -0.9098 0.0000 0.4151
vn -0.9998 0.0000 0.0173
vn -1.0000 0.0000 0.0069
vn -1.0000 0.0000 0.0043
vn -1.0000 0.0000 0.0031
vn -1.0000 0.0000 0.0023
vn -1.0000 0.0000 0.0018
vn -1.0000 0.0000 0.0014
vn -1.0000 0.0000 0.0010
vn -1.0000 0.0000 0.0008
vn -1.0000 0.0000 0.0005
vn -1.0000 0.0000 0.0002
vn -1.0000 0.0000 0.0000
vn -1.0000 0.0000 -0.0002
vn -1.0000 0.0000 -0.0004
vn -1.0000 0.0000 -0.0008
vn -1.0000 0.0000 -0.0014
vn -1.0000 0.0000 -0.0023
vn -1.0000 0.0000 -0.0037
vn -1.0000 0.0000 -0.0060
vn -0.9999 0.0000 -0.0099
vn -0.9998 0.0000 -0.0173
vn -0.9994 0.0000 -0.0346
vn -0.9942 0.0000 -0.1076
vn -0.4624 0.0000 -0.8867
vn 0.4336 0.0000 -0.9011
vn 0.4422 0.0000 -0.8969
vn 0.4443 0.0000 -0.8959
vn 0.4454 0.0000 -0.8953
vn 0.4461 0.0000 -0.8950
vn 0.4467 0.0000 -0.8947
vn 0.4473 0.0000 -0.8943
vn 0.4481 0.0000 -0.8940
vn 0.4492 0.0000 -0.8934
vn 0.4513 0.0000 -0.8924
vn 0.4598 0.0000 -0.8880
vn 0.9997 0.0000 -0.0249
vn 0.4892 0.0000 0.8722
vn 0.4632 0.0000 0.8862
vn 0.4568 0.0000 0.8896
vn 0.4537 0.0000 0.8911
vn 0.4519 0.0000 0.8920
vn 0.4508 0.0000 0.8926
vn 0.4499 0.0000 0.8930
vn 0.4493 0.0000 0.8933
vn 0.4488 0.0000 0.8936
vn 0.4484 0.0000 0.8938
vn 0.4481 0.0000 0.8939
vn 0.4479 0.0000 0.8941
vn 0.4477 0.0000 0.8942
vn 0.4476 0.0000 0.8942
vn 0.4475 0.0000 0.8943
vn 0.4473 0.0000 0.8943
vn 0.4472 0.0000 0.8944
vn 0.4469 0.0000 0.8945
vn 0.4467 0.0000 0.8947
vn 0.4463 0.0000 0.8949
vn 0.4457 0.0000 0.8952
vn 0.4444 0.0000 0.8958
vn 0.4393 0.0000 0.8983
usemtl SVGMat.007
s off
f 36/1/1 38/2/1 37/3/1
f 35/4/1 38/2/1 36/1/1
f 34/5/1 38/2/1 35/4/1
f 34/5/1 39/6/1 38/2/1
f 33/7/1 39/6/1 34/5/1
f 33/7/1 40/8/1 39/6/1
f 32/9/1 40/8/1 33/7/1
f 31/10/1 40/8/1 32/9/1
f 31/10/1 41/11/1 40/8/1
f 30/12/1 41/11/1 31/10/1
f 30/12/1 42/13/1 41/11/1
f 29/14/1 42/13/1 30/12/1
f 28/15/1 42/13/1 29/14/1
f 28/15/1 43/16/1 42/13/1
f 27/17/1 43/16/1 28/15/1
f 27/17/1 44/18/1 43/16/1
f 27/17/1 45/19/1 44/18/1
f 26/20/1 45/19/1 27/17/1
f 26/20/1 46/21/1 45/19/1
f 25/22/1 46/21/1 26/20/1
f 25/22/1 47/23/1 46/21/1
f 25/22/1 48/24/1 47/23/1
f 25/22/1 49/25/1 48/24/1
f 25/22/1 50/26/1 49/25/1
f 24/27/1 50/26/1 25/22/1
f 24/27/1 51/28/1 50/26/1
f 24/27/1 52/29/1 51/28/1
f 24/27/1 53/30/1 52/29/1
f 24/27/1 54/31/1 53/30/1
f 24/27/1 55/32/1 54/31/1
f 24/27/1 56/33/1 55/32/1
f 23/34/1 56/33/1 24/27/1
f 23/34/1 57/35/1 56/33/1
f 23/34/1 58/36/1 57/35/1
f 22/37/1 58/36/1 23/34/1
f 22/37/1 59/38/1 58/36/1
f 22/37/1 60/39/1 59/38/1
f 21/40/1 60/39/1 22/37/1
f 21/40/1 61/41/1 60/39/1
f 21/40/1 62/42/1 61/41/1
f 20/43/1 62/42/1 21/40/1
f 20/43/1 63/44/1 62/42/1
f 19/45/1 63/44/1 20/43/1
f 19/45/1 64/46/1 63/44/1
f 19/45/1 65/47/1 64/46/1
f 18/48/1 65/47/1 19/45/1
f 18/48/1 66/49/1 65/47/1
f 17/50/1 66/49/1 18/48/1
f 17/50/1 67/51/1 66/49/1
f 17/50/1 68/52/1 67/51/1
f 16/53/1 68/52/1 17/50/1
f 16/53/1 69/54/1 68/52/1
f 15/55/1 69/54/1 16/53/1
f 15/55/1 70/56/1 69/54/1
f 15/55/1 71/57/1 70/56/1
f 14/58/1 71/57/1 15/55/1
f 14/58/1 72/59/1 71/57/1
f 13/60/1 72/59/1 14/58/1
f 13/60/1 1/61/1 72/59/1
f 12/62/1 1/61/1 13/60/1
f 11/63/2 1/61/2 12/62/2
f 10/64/3 1/61/3 11/63/3
f 9/65/1 1/61/1 10/64/1
f 8/66/1 1/61/1 9/65/1
f 7/67/1 1/61/1 8/66/1
f 6/68/4 1/61/4 7/67/4
f 5/69/5 1/61/5 6/68/5
f 4/70/1 1/61/1 5/69/1
f 3/71/1 1/61/1 4/70/1
f 2/72/1 1/61/1 3/71/1
f 110/73/6 108/74/6 109/75/6
f 110/73/6 107/76/6 108/74/6
f 110/73/6 106/77/6 107/76/6
f 111/78/6 106/77/6 110/73/6
f 111/78/6 105/79/6 106/77/6
f 112/80/6 105/79/6 111/78/6
f 112/80/6 104/81/6 105/79/6
f 112/80/6 103/82/6 104/81/6
f 113/83/6 103/82/6 112/80/6
f 113/83/6 102/84/6 103/82/6
f 114/85/6 102/84/6 113/83/6
f 114/85/6 101/86/6 102/84/6
f 114/85/6 100/87/6 101/86/6
f 115/88/6 100/87/6 114/85/6
f 115/88/6 99/89/6 100/87/6
f 116/90/6 99/89/6 115/88/6
f 117/91/6 99/89/6 116/90/6
f 117/91/6 98/92/6 99/89/6
f 118/93/6 98/92/6 117/91/6
f 118/93/6 97/94/6 98/92/6
f 119/95/6 97/94/6 118/93/6
f 120/96/6 97/94/6 119/95/6
f 121/97/6 97/94/6 120/96/6
f 122/98/6 97/94/6 121/97/6
f 122/98/6 96/99/6 97/94/6
f 123/100/6 96/99/6 122/98/6
f 124/101/6 96/99/6 123/100/6
f 125/102/6 96/99/6 124/101/6
f 126/103/6 96/99/6 125/102/6
f 127/104/6 96/99/6 126/103/6
f 128/105/6 96/99/6 127/104/6
f 128/105/6 95/106/6 96/99/6
f 129/107/6 95/106/6 128/105/6
f 130/108/6 95/106/6 129/107/6
f 130/108/6 94/109/6 95/106/6
f 131/110/6 94/109/6 130/108/6
f 132/111/6 94/109/6 131/110/6
f 132/111/6 93/112/6 94/109/6
f 133/113/6 93/112/6 132/111/6
f 134/114/6 93/112/6 133/113/6
f 134/114/6 92/115/6 93/112/6
f 135/116/6 92/115/6 134/114/6
f 135/116/6 91/117/6 92/115/6
f 136/118/6 91/117/6 135/116/6
f 137/119/6 91/117/6 136/118/6
f 137/119/6 90/120/6 91/117/6
f 138/121/6 90/120/6 137/119/6
f 138/121/6 89/122/6 90/120/6
f 139/123/6 89/122/6 138/121/6
f 140/124/6 89/122/6 139/123/6
f 140/124/6 88/125/6 89/122/6
f 141/126/6 88/125/6 140/124/6
f 141/126/6 87/127/6 88/125/6
f 142/128/6 87/127/6 141/126/6
f 143/129/6 87/127/6 142/128/6
f 143/129/6 86/130/6 87/127/6
f 144/131/6 86/130/6 143/129/6
f 144/131/6 85/132/6 86/130/6
f 73/133/6 85/132/6 144/131/6
f 73/133/7 84/134/7 85/132/7
f 73/133/8 83/135/8 84/134/8
f 73/133/9 82/136/9 83/135/9
f 73/133/10 81/137/10 82/136/10
f 73/133/11 80/138/11 81/137/11
f 73/133/12 79/139/12 80/138/12
f 73/133/13 78/140/13 79/139/13
f 73/133/14 77/141/14 78/140/14
f 73/133/15 76/142/15 77/141/15
f 73/133/6 75/143/6 76/142/6
f 73/133/16 74/144/16 75/143/16
s 1
f 146/145/17 148/146/18 147/147/18 145/148/17
f 148/146/18 150/149/19 149/150/19 147/147/18
f 150/149/19 152/151/20 151/152/20 149/150/19
f 152/151/20 154/153/21 153/154/21 151/152/20
f 154/153/21 156/155/22 155/156/22 153/154/21
f 156/155/22 158/157/23 157/158/23 155/156/22
f 158/157/23 160/159/24 159/160/24 157/158/23
f 160/159/24 162/161/25 161/162/25 159/160/24
f 162/161/25 164/163/26 163/164/26 161/162/25
f 164/163/26 166/165/27 165/166/27 163/164/26
f 166/165/27 168/167/28 167/168/28 165/166/27
f 168/167/28 170/169/29 169/170/29 167/168/28
f 170/169/29 172/171/30 171/172/30 169/170/29
f 172/171/30 174/173/31 173/174/31 171/172/30
f 174/173/31 176/175/32 175/176/32 173/174/31
f 176/175/32 178/177/33 177/178/33 175/176/32
f 178/177/33 180/179/34 179/180/34 177/178/33
f 180/179/34 182/181/35 181/182/35 179/180/34
f 182/181/35 184/183/36 183/184/36 181/182/35
f 184/183/36 186/185/37 185/186/37 183/184/36
f 186/185/37 188/187/38 187/188/38 185/186/37
f 188/187/38 190/189/39 189/190/39 187/188/38
f 190/189/39 192/191/40 191/192/40 189/190/39
f 192/191/40 194/193/41 193/194/41 191/192/40
f 194/193/41 196/195/42 195/196/42 193/194/41
f 196/195/42 198/197/43 197/198/43 195/196/42
f 198/197/43 200/199/44 199/200/44 197/198/43
f 200/199/44 202/201/45 201/202/45 199/200/44
f 202/201/45 204/203/46 203/204/46 201/202/45
f 204/203/46 206/205/47 205/206/47 203/204/46
f 206/205/47 208/207/48 207/208/48 205/206/47
f 208/207/48 210/209/49 209/210/49 207/208/48
f 210/209/49 212/211/50 211/212/50 209/210/49
f 212/211/50 214/213/51 213/214/51 211/212/50
f 214/213/51 216/215/52 215/216/52 213/214/51
f 216/215/52 218/217/53 217/218/53 215/216/52
f 218/217/53 220/219/54 219/220/54 217/218/53
f 220/219/54 222/221/55 221/222/55 219/220/54
f 222/221/55 224/223/56 223/224/56 221/222/55
f 224/223/56 226/225/57 225/226/57 223/224/56
f 226/225/57 228/227/58 227/228/58 225/226/57
f 228/227/58 230/229/59 229/230/59 227/228/58
f 230/229/59 232/231/60 231/232/60 229/230/59
f 232/231/60 234/233/61 233/234/61 231/232/60
f 234/233/61 236/235/62 235/236/62 233/234/61
f 236/235/62 238/237/63 237/238/63 235/236/62
f 238/237/63 240/239/64 239/240/64 237/238/63
f 240/239/64 242/241/65 241/242/65 239/240/64
f 242/241/65 244/243/66 243/244/66 241/242/65
f 244/243/66 246/245/67 245/246/67 243/244/66
f 246/245/67 248/247/68 247/248/68 245/246/67
f 248/247/68 250/249/69 249/250/69 247/248/68
f 250/249/69 252/251/70 251/252/70 249/250/69
f 252/251/70 254/253/71 253/254/71 251/252/70
f 254/253/71 256/255/72 255/256/72 253/254/71
f 256/255/72 258/257/73 257/258/73 255/256/72
f 258/257/73 260/259/74 259/260/74 257/258/73
f 260/259/74 262/261/75 261/262/75 259/260/74
f 262/261/75 264/263/76 263/264/76 261/262/75
f 264/263/76 266/265/77 265/266/77 263/264/76
f 266/265/77 268/267/78 267/268/78 265/266/77
f 268/267/78 270/269/79 269/270/79 267/268/78
f 270/269/79 272/271/80 271/272/80 269/270/79
f 272/271/80 274/273/81 273/274/81 271/272/80
f 274/273/81 276/275/82 275/276/82 273/274/81
f 276/275/82 278/277/83 277/278/83 275/276/82
f 278/277/83 280/279/84 279/280/84 277/278/83
f 280/279/84 282/281/85 281/282/85 279/280/84
f 282/281/85 284/283/86 283/284/86 281/282/85
f 284/283/86 286/285/87 285/286/87 283/284/86
f 286/285/87 288/287/88 287/288/88 285/286/87
f 288/287/88 146/289/17 145/290/17 287/288/88
